<?xml version="1.0" encoding="UTF-8"?>
<svg id="Capa_1" xmlns="http://www.w3.org/2000/svg" version="1.1" viewBox="0 0 532.77 302.91">
  <!-- Generator: Adobe Illustrator 30.0.0, SVG Export Plug-In . SVG Version: 2.1.1 Build 123)  -->
  <g>
    <path d="M277.59,158.18v-32.1h-.12l-13.44,32.1h-6.54l-13.14-31.5h-.12v31.5h-6.96v-39.84h10.8l12.78,30.42h.12l12.78-30.42h11.04v39.84h-7.2Z" fill="#fff"/>
    <path d="M337.46,138.26c0,12-8.58,20.52-20.82,20.52s-20.82-8.52-20.82-20.52,8.58-20.52,20.82-20.52,20.82,8.52,20.82,20.52ZM303.09,138.26c0,8.34,5.52,14.1,13.56,14.1s13.56-5.76,13.56-14.1-5.52-14.1-13.56-14.1-13.56,5.76-13.56,14.1Z" fill="#fff"/>
    <path d="M355.71,158.18h-7.2v-39.84h7.2v17.46l16.68-17.46h9.36l-19.44,19.62,20.04,20.22h-9.78l-16.86-17.64v17.64Z" fill="#fff"/>
    <path d="M418.4,120.92v7.62h-.36c-2.58-2.76-7.14-4.38-12.42-4.38s-8.28,2.16-8.28,5.52c0,2.82,2.1,4.26,8.82,4.92,10.62,1.08,14.52,4.74,14.52,12.06s-5.76,12.12-15.6,12.12c-6.54,0-11.7-1.32-14.94-3.78v-7.68h.36c3.6,3.3,8.58,5.04,14.4,5.04,5.52,0,8.64-1.98,8.64-5.52,0-3.06-2.16-4.5-9.24-5.28-10.38-1.14-14.1-4.5-14.1-11.46,0-7.68,5.94-12.36,15.54-12.36,5.22,0,10.08,1.26,12.66,3.18Z" fill="#fff"/>
    <path d="M458.3,150.68h-20.4l-3.18,7.5h-7.5l17.52-39.84h6.9l17.58,39.84h-7.74l-3.18-7.5ZM448.04,126.5l-7.5,17.88h15.12l-7.5-17.88h-.12Z" fill="#fff"/>
  </g>
  <g>
    <path d="M250.85,175.29v1.1h-.05c-.73-.83-2.07-1.31-3.66-1.31-1.84,0-3.11.97-3.11,2.36,0,1.24.76,1.8,3.23,2.04,3.04.29,4.13,1.16,4.13,3.16s-1.6,3.21-4.17,3.21c-1.8,0-3.33-.46-4.28-1.27v-1.1h.05c.99,1,2.45,1.53,4.25,1.53,2.01,0,3.21-.88,3.21-2.36,0-1.36-.8-1.97-3.4-2.24-2.92-.31-3.96-1.09-3.96-2.94s1.61-3.23,4.04-3.23c1.6,0,2.96.39,3.71,1.05Z" fill="#fff"/>
    <path d="M267.78,180.04c0,3.4-2.43,5.81-5.85,5.81s-5.85-2.41-5.85-5.81,2.43-5.81,5.85-5.81,5.85,2.41,5.85,5.81ZM257.04,180.04c0,2.91,2.02,4.96,4.9,4.96s4.9-2.06,4.9-4.96-2.02-4.96-4.9-4.96-4.9,2.06-4.9,4.96Z" fill="#fff"/>
    <path d="M273.27,185.69v-11.29h.94v10.44h6.95v.85h-7.89Z" fill="#fff"/>
    <path d="M295.53,180.96c0,3.18-1.68,4.9-4.78,4.9s-4.78-1.72-4.78-4.9v-6.56h.94v6.53c0,2.63,1.36,4.08,3.86,4.08s3.84-1.44,3.84-4.08v-6.53h.92v6.56Z" fill="#fff"/>
    <path d="M304.5,185.69v-10.44h-4.01v-.85h8.91v.85h-3.96v10.44h-.93Z" fill="#fff"/>
    <path d="M314.67,174.4h.93v11.29h-.93v-11.29Z" fill="#fff"/>
    <path d="M332.79,180.04c0,3.4-2.43,5.81-5.85,5.81s-5.85-2.41-5.85-5.81,2.43-5.81,5.85-5.81,5.85,2.41,5.85,5.81ZM322.05,180.04c0,2.91,2.02,4.96,4.9,4.96s4.9-2.06,4.9-4.96-2.02-4.96-4.9-4.96-4.9,2.06-4.9,4.96Z" fill="#fff"/>
    <path d="M346.87,185.69l-7.63-10.32h-.03v10.32h-.92v-11.29h1.33l7.46,10.06h.03v-10.06h.92v11.29h-1.16Z" fill="#fff"/>
    <path d="M368.57,175.29v1.1h-.05c-.73-.83-2.07-1.31-3.65-1.31-1.84,0-3.11.97-3.11,2.36,0,1.24.77,1.8,3.23,2.04,3.04.29,4.13,1.16,4.13,3.16s-1.6,3.21-4.16,3.21c-1.8,0-3.33-.46-4.28-1.27v-1.1h.05c.99,1,2.45,1.53,4.25,1.53,2.01,0,3.21-.88,3.21-2.36,0-1.36-.8-1.97-3.4-2.24-2.92-.31-3.96-1.09-3.96-2.94s1.62-3.23,4.05-3.23c1.6,0,2.96.39,3.71,1.05Z" fill="#fff"/>
    <path d="M381.46,180.38h-5.95v4.45h7.17v.85h-8.11v-11.29h8.11v.85h-7.17v4.28h5.95v.85Z" fill="#fff"/>
    <path d="M388.36,185.69v-11.29h4.86c2.55,0,3.86,1.14,3.86,3.35,0,1.89-.97,2.99-2.87,3.26l3.21,4.67h-1.14l-3.08-4.61h-3.91v4.61h-.93ZM393.19,180.23c1.96,0,2.94-.83,2.94-2.48s-.99-2.5-2.94-2.5h-3.89v4.98h3.89Z" fill="#fff"/>
    <path d="M406.55,185.69l-4.98-11.29h1.02l4.4,10.06h.03l4.4-10.06h1l-4.98,11.29h-.9Z" fill="#fff"/>
    <path d="M417.62,174.4h.93v11.29h-.93v-11.29Z" fill="#fff"/>
    <path d="M433.79,175.49v1.09h-.05c-.87-.99-2.21-1.5-3.72-1.5-2.99,0-5.01,2.04-5.01,4.96s2.02,4.96,5.01,4.96c1.5,0,2.82-.49,3.72-1.5h.05v1.09c-.92.8-2.26,1.26-3.81,1.26-3.52,0-5.93-2.41-5.93-5.81s2.41-5.81,5.93-5.81c1.61,0,2.91.43,3.81,1.26Z" fill="#fff"/>
    <path d="M446.37,180.38h-5.95v4.45h7.17v.85h-8.11v-11.29h8.11v.85h-7.17v4.28h5.95v.85Z" fill="#fff"/>
    <path d="M460.43,175.29v1.1h-.05c-.73-.83-2.07-1.31-3.65-1.31-1.84,0-3.11.97-3.11,2.36,0,1.24.77,1.8,3.23,2.04,3.04.29,4.13,1.16,4.13,3.16s-1.6,3.21-4.16,3.21c-1.8,0-3.33-.46-4.28-1.27v-1.1h.05c.99,1,2.45,1.53,4.25,1.53,2.01,0,3.21-.88,3.21-2.36,0-1.36-.8-1.97-3.4-2.24-2.92-.31-3.96-1.09-3.96-2.94s1.62-3.23,4.05-3.23c1.6,0,2.96.39,3.71,1.05Z" fill="#fff"/>
  </g>
  <g>
    <polygon points="138.04 111.67 88.56 173.49 187.51 173.49 138.04 111.67" fill="#fff"/>
    <path d="M138.04,111.67c-13.88,18.1-34.58,44.93-48.45,62.63,0,0-1.02-2.12-1.02-2.12,12.34-.1,37.14-.19,49.47-.2,12.32,0,37.15.11,49.47.19,0,0-1.02,2.12-1.02,2.12-13.8-17.6-34.63-44.65-48.45-62.64h0ZM138.04,111.67c15.39,18.61,37.23,44.54,52.19,63.11-13.66.1-38.52.2-52.19.21-13.67-.02-38.52-.11-52.18-.21,14.89-18.48,36.85-44.61,52.18-63.11h0Z" fill="#fff"/>
  </g>
  <path d="M138.04,95.31c-19.91,25.92-49.56,64.32-69.51,89.64,0,0-1.36-2.83-1.36-2.83,17.68-.13,53.2-.24,70.87-.26,17.65,0,53.22.15,70.87.26,0,0-1.36,2.82-1.36,2.82-19.83-25.19-49.68-63.88-69.51-89.64h0ZM138.04,95.31c21.94,26.58,53.16,63.74,74.48,90.27-19.44.13-55.03.27-74.48.28-19.46-.02-55.05-.14-74.49-.28,21.22-26.41,52.63-63.85,74.49-90.28h0Z" fill="#fff"/>
  <path d="M171.38,97.57c-.08,7.28,6.35,13.49,13.54,12.67,6.42-.59,11.07-6.49,10.99-12.67.09-6.18-4.57-12.1-11-12.68-7.2-.82-13.62,5.4-13.54,12.68h0ZM171.08,97.57c-.09-12.5,14.92-19.25,23.78-10.07,5.35,5.36,5.35,14.79,0,20.15-8.86,9.17-23.87,2.43-23.78-10.08h0Z" fill="#fff"/>
</svg>